<svg width="20" height="20" viewBox="0 0 20 20" fill="none" xmlns="http://www.w3.org/2000/svg">
<path d="M10 19.982L8.55 18.5664C6.86667 16.9148 5.475 15.4901 4.375 14.2923C3.275 13.0945 2.4 12.0191 1.75 11.0663C1.1 10.1135 0.645833 9.2378 0.3875 8.43925C0.129167 7.6407 0 6.824 0 5.98915C0 4.28315 0.525 2.85846 1.575 1.71507C2.625 0.571691 3.93333 0 5.5 0C6.36667 0 7.19167 0.199638 7.975 0.598915C8.75833 0.998191 9.43333 1.56081 10 2.28676C10.5667 1.56081 11.2417 0.998191 12.025 0.598915C12.8083 0.199638 13.6333 0 14.5 0C16.0667 0 17.375 0.571691 18.425 1.71507C19.475 2.85846 20 4.28315 20 5.98915C20 6.824 19.8708 7.6407 19.6125 8.43925C19.3542 9.2378 18.9 10.1135 18.25 11.0663C17.6 12.0191 16.725 13.0945 15.625 14.2923C14.525 15.4901 13.1333 16.9148 11.45 18.5664L10 19.982ZM10 17.0418C11.6 15.481 12.9167 14.1426 13.95 13.0264C14.9833 11.9102 15.8 10.9393 16.4 10.1135C17 9.28771 17.4167 8.55268 17.65 7.9084C17.8833 7.26411 18 6.62436 18 5.98915C18 4.90021 17.6667 3.99276 17 3.26681C16.3333 2.54085 15.5 2.17787 14.5 2.17787C13.7167 2.17787 12.9917 2.41834 12.325 2.89929C11.6583 3.38024 11.2 3.99276 10.95 4.73687H9.05C8.8 3.99276 8.34167 3.38024 7.675 2.89929C7.00833 2.41834 6.28333 2.17787 5.5 2.17787C4.5 2.17787 3.66667 2.54085 3 3.26681C2.33333 3.99276 2 4.90021 2 5.98915C2 6.62436 2.11667 7.26411 2.35 7.9084C2.58333 8.55268 3 9.28771 3.6 10.1135C4.2 10.9393 5.01667 11.9102 6.05 13.0264C7.08333 14.1426 8.4 15.481 10 17.0418Z" fill="black"/>
</svg>
