<svg width="22" height="20" viewBox="0 0 22 20" fill="none" xmlns="http://www.w3.org/2000/svg">
<path d="M14.1 16.95L13.225 19.375C13.1583 19.5583 13.0417 19.7083 12.875 19.825C12.7083 19.9417 12.525 20 12.325 20C11.9917 20 11.7208 19.8625 11.5125 19.5875C11.3042 19.3125 11.2667 19.0083 11.4 18.675L15.2 8.625C15.2833 8.44167 15.4083 8.29167 15.575 8.175C15.7417 8.05833 15.925 8 16.125 8H16.875C17.075 8 17.2583 8.05833 17.425 8.175C17.5917 8.29167 17.7167 8.44167 17.8 8.625L21.6 18.7C21.7333 19.0167 21.7 19.3125 21.5 19.5875C21.3 19.8625 21.0333 20 20.7 20C20.4833 20 20.2958 19.9375 20.1375 19.8125C19.9792 19.6875 19.8583 19.525 19.775 19.325L18.95 16.95H14.1ZM14.7 15.2H18.3L16.55 10.25H16.45L14.7 15.2ZM8 12L3.7 16.3C3.51667 16.4833 3.28333 16.575 3 16.575C2.71667 16.575 2.48333 16.4833 2.3 16.3C2.11667 16.1167 2.025 15.8833 2.025 15.6C2.025 15.3167 2.11667 15.0833 2.3 14.9L6.65 10.55C6.01667 9.85 5.4625 9.125 4.9875 8.375C4.5125 7.625 4.1 6.83333 3.75 6H5.85C6.15 6.6 6.47083 7.14167 6.8125 7.625C7.15417 8.10833 7.56667 8.61667 8.05 9.15C8.78333 8.35 9.39167 7.52917 9.875 6.6875C10.3583 5.84583 10.7667 4.95 11.1 4H1C0.716667 4 0.479167 3.90417 0.2875 3.7125C0.0958333 3.52083 0 3.28333 0 3C0 2.71667 0.0958333 2.47917 0.2875 2.2875C0.479167 2.09583 0.716667 2 1 2H7V1C7 0.716667 7.09583 0.479167 7.2875 0.2875C7.47917 0.0958333 7.71667 0 8 0C8.28333 0 8.52083 0.0958333 8.7125 0.2875C8.90417 0.479167 9 0.716667 9 1V2H15C15.2833 2 15.5208 2.09583 15.7125 2.2875C15.9042 2.47917 16 2.71667 16 3C16 3.28333 15.9042 3.52083 15.7125 3.7125C15.5208 3.90417 15.2833 4 15 4H13.1C12.75 5.18333 12.275 6.33333 11.675 7.45C11.075 8.56667 10.3333 9.61667 9.45 10.6L11.85 13.05L11.1 15.1L8 12Z" fill="#FF6262"/>
</svg>
