<svg width="253" height="47" viewBox="0 0 253 47" fill="none" xmlns="http://www.w3.org/2000/svg">
<path d="M0.264008 46V12.4H13.752C17.24 12.4 19.896 13.216 21.72 14.848C23.576 16.448 24.504 18.512 24.504 21.04C24.504 23.152 23.928 24.848 22.776 26.128C21.656 27.376 20.28 28.224 18.648 28.672C20.568 29.056 22.152 30.016 23.4 31.552C24.648 33.056 25.272 34.816 25.272 36.832C25.272 39.488 24.312 41.68 22.392 43.408C20.472 45.136 17.752 46 14.232 46H0.264008ZM6.40801 26.512H12.84C14.568 26.512 15.896 26.112 16.824 25.312C17.752 24.512 18.216 23.376 18.216 21.904C18.216 20.496 17.752 19.392 16.824 18.592C15.928 17.76 14.568 17.344 12.744 17.344H6.40801V26.512ZM6.40801 41.008H13.272C15.096 41.008 16.504 40.592 17.496 39.76C18.52 38.896 19.032 37.696 19.032 36.16C19.032 34.592 18.504 33.36 17.448 32.464C16.392 31.568 14.968 31.12 13.176 31.12H6.40801V41.008Z" fill="#FF6262"/>
<path d="M41.9693 46.576C39.5693 46.576 37.4413 46.064 35.5853 45.04C33.7293 44.016 32.2733 42.576 31.2173 40.72C30.1613 38.864 29.6333 36.72 29.6333 34.288C29.6333 31.824 30.1453 29.632 31.1693 27.712C32.2253 25.792 33.6653 24.304 35.4893 23.248C37.3453 22.16 39.5213 21.616 42.0173 21.616C44.3533 21.616 46.4173 22.128 48.2093 23.152C50.0013 24.176 51.3933 25.584 52.3853 27.376C53.4093 29.136 53.9213 31.104 53.9213 33.28C53.9213 33.632 53.9053 34 53.8733 34.384C53.8733 34.768 53.8573 35.168 53.8253 35.584H35.7293C35.8573 37.44 36.4973 38.896 37.6493 39.952C38.8333 41.008 40.2573 41.536 41.9213 41.536C43.1693 41.536 44.2093 41.264 45.0413 40.72C45.9053 40.144 46.5453 39.408 46.9613 38.512H53.2013C52.7533 40.016 52.0013 41.392 50.9453 42.64C49.9213 43.856 48.6413 44.816 47.1053 45.52C45.6013 46.224 43.8893 46.576 41.9693 46.576ZM42.0173 26.608C40.5133 26.608 39.1853 27.04 38.0333 27.904C36.8813 28.736 36.1453 30.016 35.8253 31.744H47.6813C47.5853 30.176 47.0093 28.928 45.9533 28C44.8973 27.072 43.5853 26.608 42.0173 26.608Z" fill="#FF6262"/>
<path d="M67.2968 46.576C65.2488 46.576 63.5688 46.256 62.2568 45.616C60.9448 44.944 59.9688 44.064 59.3288 42.976C58.6888 41.888 58.3688 40.688 58.3688 39.376C58.3688 37.168 59.2328 35.376 60.9608 34C62.6888 32.624 65.2808 31.936 68.7368 31.936H74.7848V31.36C74.7848 29.728 74.3208 28.528 73.3928 27.76C72.4648 26.992 71.3128 26.608 69.9368 26.608C68.6888 26.608 67.6008 26.912 66.6728 27.52C65.7448 28.096 65.1688 28.96 64.9448 30.112H58.9448C59.1048 28.384 59.6808 26.88 60.6728 25.6C61.6968 24.32 63.0088 23.344 64.6088 22.672C66.2088 21.968 68.0008 21.616 69.9848 21.616C73.3768 21.616 76.0488 22.464 78.0008 24.16C79.9528 25.856 80.9288 28.256 80.9288 31.36V46H75.6968L75.1208 42.16C74.4168 43.44 73.4248 44.496 72.1448 45.328C70.8968 46.16 69.2808 46.576 67.2968 46.576ZM68.6888 41.776C70.4488 41.776 71.8088 41.2 72.7688 40.048C73.7608 38.896 74.3848 37.472 74.6408 35.776H69.4088C67.7768 35.776 66.6088 36.08 65.9048 36.688C65.2008 37.264 64.8488 37.984 64.8488 38.848C64.8488 39.776 65.2008 40.496 65.9048 41.008C66.6088 41.52 67.5368 41.776 68.6888 41.776Z" fill="#FF6262"/>
<path d="M97.0718 46C94.5758 46 92.5758 45.392 91.0718 44.176C89.5678 42.96 88.8158 40.8 88.8158 37.696V27.328H84.7358V22.192H88.8158L89.5358 15.808H94.9598V22.192H101.392V27.328H94.9598V37.744C94.9598 38.896 95.1998 39.696 95.6798 40.144C96.1918 40.56 97.0558 40.768 98.2718 40.768H101.248V46H97.0718Z" fill="#FF6262"/>
<path d="M106.667 46V22.192H112.139L112.715 26.656C113.579 25.12 114.747 23.904 116.219 23.008C117.723 22.08 119.483 21.616 121.499 21.616V28.096H119.771C118.427 28.096 117.227 28.304 116.171 28.72C115.115 29.136 114.283 29.856 113.675 30.88C113.099 31.904 112.811 33.328 112.811 35.152V46H106.667Z" fill="#FF6262"/>
<path d="M129.01 18.496C127.89 18.496 126.962 18.16 126.226 17.488C125.522 16.816 125.17 15.968 125.17 14.944C125.17 13.92 125.522 13.088 126.226 12.448C126.962 11.776 127.89 11.44 129.01 11.44C130.13 11.44 131.042 11.776 131.746 12.448C132.482 13.088 132.85 13.92 132.85 14.944C132.85 15.968 132.482 16.816 131.746 17.488C131.042 18.16 130.13 18.496 129.01 18.496ZM125.938 46V22.192H132.082V46H125.938Z" fill="#FF6262"/>
<path d="M136.959 46V41.056L149.103 27.28H137.103V22.192H156.111V27.136L143.775 40.912H156.351V46H136.959Z" fill="#FF6262"/>
<path d="M173.045 46V12.4H179.189V41.2H194.069V46H173.045Z" fill="#FF6262"/>
<path d="M202.651 18.496C201.531 18.496 200.603 18.16 199.867 17.488C199.163 16.816 198.811 15.968 198.811 14.944C198.811 13.92 199.163 13.088 199.867 12.448C200.603 11.776 201.531 11.44 202.651 11.44C203.771 11.44 204.683 11.776 205.387 12.448C206.123 13.088 206.491 13.92 206.491 14.944C206.491 15.968 206.123 16.816 205.387 17.488C204.683 18.16 203.771 18.496 202.651 18.496ZM199.579 46V22.192H205.723V46H199.579Z" fill="#FF6262"/>
<path d="M212.136 46V22.192H217.608L218.184 26.656C219.048 25.12 220.216 23.904 221.688 23.008C223.192 22.08 224.952 21.616 226.968 21.616V28.096H225.24C223.896 28.096 222.696 28.304 221.64 28.72C220.584 29.136 219.752 29.856 219.144 30.88C218.568 31.904 218.28 33.328 218.28 35.152V46H212.136Z" fill="#FF6262"/>
<path d="M239.375 46.576C237.327 46.576 235.647 46.256 234.335 45.616C233.023 44.944 232.047 44.064 231.407 42.976C230.767 41.888 230.447 40.688 230.447 39.376C230.447 37.168 231.311 35.376 233.039 34C234.767 32.624 237.359 31.936 240.815 31.936H246.863V31.36C246.863 29.728 246.399 28.528 245.471 27.76C244.543 26.992 243.391 26.608 242.015 26.608C240.767 26.608 239.679 26.912 238.751 27.52C237.823 28.096 237.247 28.96 237.023 30.112H231.023C231.183 28.384 231.759 26.88 232.751 25.6C233.775 24.32 235.087 23.344 236.687 22.672C238.287 21.968 240.079 21.616 242.063 21.616C245.455 21.616 248.127 22.464 250.079 24.16C252.031 25.856 253.007 28.256 253.007 31.36V46H247.775L247.199 42.16C246.495 43.44 245.503 44.496 244.223 45.328C242.975 46.16 241.359 46.576 239.375 46.576ZM240.767 41.776C242.527 41.776 243.887 41.2 244.847 40.048C245.839 38.896 246.463 37.472 246.719 35.776H241.487C239.855 35.776 238.687 36.08 237.983 36.688C237.279 37.264 236.927 37.984 236.927 38.848C236.927 39.776 237.279 40.496 237.983 41.008C238.687 41.52 239.615 41.776 240.767 41.776Z" fill="#FF6262"/>
<path d="M132 20C130.617 20 129.317 19.7375 128.1 19.2125C126.883 18.6875 125.825 17.975 124.925 17.075C124.025 16.175 123.312 15.1167 122.788 13.9C122.262 12.6833 122 11.3833 122 10C122 8.61667 122.262 7.31667 122.788 6.1C123.312 4.88333 124.025 3.825 124.925 2.925C125.825 2.025 126.883 1.3125 128.1 0.7875C129.317 0.2625 130.617 0 132 0C133.383 0 134.683 0.2625 135.9 0.7875C137.117 1.3125 138.175 2.025 139.075 2.925C139.975 3.825 140.688 4.88333 141.212 6.1C141.737 7.31667 142 8.61667 142 10C142 11.3833 141.737 12.6833 141.212 13.9C140.688 15.1167 139.975 16.175 139.075 17.075C138.175 17.975 137.117 18.6875 135.9 19.2125C134.683 19.7375 133.383 20 132 20ZM132 18C134.233 18 136.125 17.225 137.675 15.675C139.225 14.125 140 12.2333 140 10C140 7.76667 139.225 5.875 137.675 4.325C136.125 2.775 134.233 2 132 2C129.767 2 127.875 2.775 126.325 4.325C124.775 5.875 124 7.76667 124 10C124 12.2333 124.775 14.125 126.325 15.675C127.875 17.225 129.767 18 132 18Z" fill="#FF6262"/>
<path d="M204 20C202.617 20 201.317 19.7375 200.1 19.2125C198.883 18.6875 197.825 17.975 196.925 17.075C196.025 16.175 195.312 15.1167 194.788 13.9C194.262 12.6833 194 11.3833 194 10C194 8.61667 194.262 7.31667 194.788 6.1C195.312 4.88333 196.025 3.825 196.925 2.925C197.825 2.025 198.883 1.3125 200.1 0.7875C201.317 0.2625 202.617 0 204 0C205.383 0 206.683 0.2625 207.9 0.7875C209.117 1.3125 210.175 2.025 211.075 2.925C211.975 3.825 212.688 4.88333 213.212 6.1C213.737 7.31667 214 8.61667 214 10C214 11.3833 213.737 12.6833 213.212 13.9C212.688 15.1167 211.975 16.175 211.075 17.075C210.175 17.975 209.117 18.6875 207.9 19.2125C206.683 19.7375 205.383 20 204 20ZM204 18C206.233 18 208.125 17.225 209.675 15.675C211.225 14.125 212 12.2333 212 10C212 7.76667 211.225 5.875 209.675 4.325C208.125 2.775 206.233 2 204 2C201.767 2 199.875 2.775 198.325 4.325C196.775 5.875 196 7.76667 196 10C196 12.2333 196.775 14.125 198.325 15.675C199.875 17.225 201.767 18 204 18Z" fill="#FF6262"/>
</svg>
